<?xml version="1.0" encoding="UTF-8" standalone="no"?>
<svg
   xmlns:dc="http://purl.org/dc/elements/1.1/"
   xmlns:cc="http://creativecommons.org/ns#"
   xmlns:rdf="http://www.w3.org/1999/02/22-rdf-syntax-ns#"
   xmlns:svg="http://www.w3.org/2000/svg"
   xmlns="http://www.w3.org/2000/svg"
   xmlns:sodipodi="http://sodipodi.sourceforge.net/DTD/sodipodi-0.dtd"
   xmlns:inkscape="http://www.inkscape.org/namespaces/inkscape"
   inkscape:export-ydpi="96"
   inkscape:export-xdpi="96"
   inkscape:export-filename="/home/natorsc/Projetos/gdnf-cache/src/data/icons/br.natorsc.Gdnfcache-512X512.png"
   sodipodi:docname="br.natorsc.Gdnfcache.svg"
   inkscape:version="1.0rc1 (09960d6f05, 2020-04-09)"
   id="svg8"
   version="1.1"
   viewBox="0 0 12.699999 12.7"
   height="48"
   width="48">
  <defs
     id="defs2">
    <style
       id="style28">.cls-1{fill:#45413c;opacity:0.15;}.cls-2{fill:#f0d5a8;}.cls-3{fill:#debb7e;}.cls-4{fill:none;}.cls-4,.cls-5,.cls-8,.cls-9{stroke:#4f4b45;stroke-linejoin:round;}.cls-5{fill:#fff;}.cls-6,.cls-8{fill:#fff5e3;}.cls-7,.cls-9{fill:#f7e5c6;}</style>
  </defs>
  <sodipodi:namedview
     units="px"
     inkscape:window-maximized="1"
     inkscape:window-y="27"
     inkscape:window-x="0"
     inkscape:window-height="704"
     inkscape:window-width="1366"
     showgrid="false"
     inkscape:document-rotation="0"
     inkscape:current-layer="layer1"
     inkscape:document-units="px"
     inkscape:cy="38.560645"
     inkscape:cx="30.749178"
     inkscape:zoom="5.6"
     inkscape:pageshadow="2"
     inkscape:pageopacity="0.0"
     borderopacity="1.0"
     bordercolor="#666666"
     pagecolor="#ffffff"
     id="base" />
  <metadata
     id="metadata5">
    <rdf:RDF>
      <cc:Work
         rdf:about="">
        <dc:format>image/svg+xml</dc:format>
        <dc:type
           rdf:resource="http://purl.org/dc/dcmitype/StillImage" />
        <dc:title></dc:title>
      </cc:Work>
    </rdf:RDF>
  </metadata>
  <g
     id="layer1"
     inkscape:groupmode="layer"
     inkscape:label="Camada 1">
    <g
       id="g118"
       transform="matrix(0.37079281,0,0,0.37115163,0.07124176,0.0651146)">
      <path
         inkscape:connector-curvature="0"
         id="_Path_"
         data-name="&lt;Path&gt;"
         class="cls-2"
         d="m 2.2768737,27.00712 13.4659223,5.657117 a 3.2176637,3.3773817 0 0 0 1.190535,0.253302 V 14.130853 L 1.3517956,7.5871753 A 2.1558345,2.2628458 0 0 0 0.93349926,8.9296844 V 24.972249 A 2.1317021,2.2375154 0 0 0 2.2768737,27.00712 Z"
         style="fill:#80b3ff;stroke-width:0.82414" />
      <path
         inkscape:connector-curvature="0"
         id="_Path_2"
         data-name="&lt;Path&gt;"
         class="cls-3"
         d="m 2.2768737,22.785393 a 2.1236579,2.229072 0 0 1 -1.34337444,-2.07709 v 4.221728 A 2.1317021,2.2375154 0 0 0 2.2768737,27.00712 l 13.4659223,5.657117 a 3.2176637,3.3773817 0 0 0 1.190535,0.253302 v -4.221727 a 3.2176637,3.3773817 0 0 1 -1.190535,-0.244861 z"
         style="fill:#5599ff;stroke-width:0.82414" />
      <path
         inkscape:connector-curvature="0"
         id="_Path_3"
         data-name="&lt;Path&gt;"
         class="cls-4"
         d="m 2.2768737,27.00712 13.4659223,5.657117 a 3.2176637,3.3773817 0 0 0 1.190535,0.253302 V 14.130853 L 1.3517956,7.5871753 A 2.1558345,2.2628458 0 0 0 0.93349926,8.9296844 V 24.972249 A 2.1317021,2.2375154 0 0 0 2.2768737,27.00712 Z"
         style="stroke-width:0.82414" />
      <path
         inkscape:connector-curvature="0"
         id="_Path_4"
         data-name="&lt;Path&gt;"
         class="cls-2"
         d="m 31.589789,27.00712 a 2.1317021,2.2375154 0 0 0 1.343377,-2.077089 V 8.9296844 A 2.1558345,2.2628458 0 0 0 32.514867,7.5871753 L 16.933331,14.130853 v 18.786686 a 3.2176637,3.3773817 0 0 0 1.190536,-0.244864 z"
         style="fill:#80b3ff;fill-opacity:1;stroke-width:0.82414" />
      <path
         inkscape:connector-curvature="0"
         id="_Path_5"
         data-name="&lt;Path&gt;"
         class="cls-3"
         d="m 31.589789,22.971149 -13.465922,5.657116 a 3.2176637,3.3773817 0 0 1 -1.190536,0.236417 v 4.052857 a 3.2176637,3.3773817 0 0 0 1.190536,-0.244864 L 31.589789,27.00712 a 2.1317021,2.2375154 0 0 0 1.343377,-2.077089 v -4.035973 a 2.1317021,2.2375154 0 0 1 -1.343377,2.077091 z"
         style="fill:#5599ff;stroke-width:0.82414" />
      <path
         inkscape:connector-curvature="0"
         id="_Path_6"
         data-name="&lt;Path&gt;"
         class="cls-4"
         d="m 31.589789,27.00712 a 2.1317021,2.2375154 0 0 0 1.343377,-2.077089 V 8.9296844 A 2.1558345,2.2628458 0 0 0 32.514867,7.5871753 L 16.933331,14.130853 v 18.786686 a 3.2176637,3.3773817 0 0 0 1.190536,-0.244864 z"
         style="stroke-width:0.82414" />
      <path
         inkscape:connector-curvature="0"
         id="_Path_7"
         data-name="&lt;Path&gt;"
         class="cls-2"
         d="M 31.589789,6.8441525 18.123867,1.1954809 a 3.2176637,3.3773817 0 0 0 -2.413248,0 L 2.2768737,6.8441525 A 2.1960554,2.3050631 0 0 0 1.3517956,7.5871753 L 16.933331,14.130853 32.514867,7.5871753 A 2.1960554,2.3050631 0 0 0 31.589789,6.8441525 Z"
         style="fill:#d5e5ff;stroke-width:0.82414" />
      <path
         inkscape:connector-curvature="0"
         id="_Path_8"
         data-name="&lt;Path&gt;"
         class="cls-3"
         d="M 31.589789,6.8441525 31.139315,6.658397 29.530484,5.9913633 22.178124,9.0816677 a 14.19794,14.902697 0 0 1 -10.53785,0 L 4.3120461,5.9913633 2.2768737,6.8357084 A 2.1960554,2.3050631 0 0 0 1.3517956,7.5871753 L 16.933331,14.130853 32.514867,7.5871753 A 2.1960554,2.3050631 0 0 0 31.589789,6.8441525 Z"
         style="fill:#aaccff;stroke-width:0.82414" />
      <path
         inkscape:connector-curvature="0"
         id="_Path_9"
         data-name="&lt;Path&gt;"
         class="cls-4"
         d="M 31.589789,6.8441525 18.123867,1.1954809 a 3.2176637,3.3773817 0 0 0 -2.413248,0 L 2.2768737,6.8441525 A 2.1960554,2.3050631 0 0 0 1.3517956,7.5871753 L 16.933331,14.130853 32.514867,7.5871753 A 2.1960554,2.3050631 0 0 0 31.589789,6.8441525 Z"
         style="stroke-width:0.82414" />
      <polygon
         id="_Path_11"
         data-name="&lt;Path&gt;"
         class="cls-6"
         points="37.09,10.07 30.96,7.62 11.07,15.58 17.2,18.03 "
         transform="matrix(0.80441589,0,0,0.84434544,-2.37265,-3.3893148)"
         style="fill:#e9ddaf" />
      <path
         inkscape:connector-curvature="0"
         id="_Path_12"
         data-name="&lt;Path&gt;"
         class="cls-7"
         d="M 11.664407,9.0816677 9.9107806,8.3470866 6.532234,9.7655875 l 4.931069,2.0433145 4.174919,-1.68869 A 14.318603,15.029349 0 0 1 11.664407,9.0816677 Z"
         style="fill:#decd87;stroke-width:0.82414" />
      <polygon
         id="_Path_13"
         data-name="&lt;Path&gt;"
         class="cls-4"
         points="37.09,10.07 30.96,7.62 11.07,15.58 17.2,18.03 "
         transform="matrix(0.80441589,0,0,0.84434544,-2.37265,-3.3893148)" />
      <polygon
         id="_Path_14"
         data-name="&lt;Path&gt;"
         class="cls-8"
         points="11.07,20.75 17.23,23.21 17.2,18.03 11.07,15.58 "
         transform="matrix(0.80441589,0,0,0.84434544,-2.37265,-3.3893148)"
         style="fill:#d3bc5f" />
      <polygon
         id="_Path_15"
         data-name="&lt;Path&gt;"
         class="cls-9"
         points="11.07,38.15 17.23,40.62 17.2,36.8 11.07,34.34 "
         transform="matrix(0.80441589,0,0,0.84434544,-2.37265,-3.3893148)"
         style="fill:#d3bc5f" />
      <g
         id="g96">
        <g
           id="g89">
          <g
             id="g53"
             transform="matrix(0.25833321,0,0,0.26832316,-0.56443714,-0.60672401)">
            <polygon
               style="fill:#d5e5ff"
               transform="matrix(5.8662385,0,0,5.9281793,-80.093698,-76.900766)"
               points="33.41,21 33.41,27.49 27.68,29.78 27.68,23.29 "
               class="cls-5"
               data-name="&lt;Path&gt;"
               id="_Path_10" />
            <text
               transform="matrix(0.62243538,-0.71617399,0.79003293,0.69758079,0,0)"
               id="text1055"
               y="123.1818"
               x="-5.5567107"
               style="font-size:14.8167px;line-height:1.25;font-family:sans-serif;-inkscape-font-specification:sans-serif;letter-spacing:0px;word-spacing:0px;fill:#2c5aa0;stroke-width:0.334202"
               xml:space="preserve"><tspan
                 style="font-style:normal;font-variant:normal;font-weight:normal;font-stretch:normal;font-family:'Arial Black';-inkscape-font-specification:'Arial Black, ';fill:#2c5aa0;stroke-width:0.334202"
                 y="123.1818"
                 x="-5.5567107"
                 id="tspan1053"
                 sodipodi:role="line"
                 dy="0 0 0">DNF</tspan></text>
          </g>
        </g>
      </g>
    </g>
  </g>
</svg>
